<svg width="34" height="34" viewBox="0 0 34 34" fill="none" xmlns="http://www.w3.org/2000/svg">
<path fill-rule="evenodd" clip-rule="evenodd" d="M15.9985 4.66509C16.2641 4.3995 16.6244 4.25031 17 4.25031C17.3757 4.25031 17.736 4.3995 18.0016 4.66509L26.5016 13.1651L29.335 15.9984C29.593 16.2656 29.7358 16.6235 29.7326 16.9949C29.7294 17.3664 29.5804 17.7217 29.3177 17.9843C29.055 18.247 28.6997 18.396 28.3283 18.3992C27.9568 18.4024 27.599 18.2596 27.3318 18.0016L26.9167 17.5865V26.9167C26.9167 27.6681 26.6182 28.3888 26.0868 28.9201C25.5555 29.4515 24.8348 29.75 24.0834 29.75H19.8334C19.4577 29.75 19.0973 29.6007 18.8316 29.3351C18.566 29.0694 18.4167 28.7091 18.4167 28.3333V24.0833H15.5834V28.3333C15.5834 28.7091 15.4341 29.0694 15.1684 29.3351C14.9028 29.6007 14.5424 29.75 14.1667 29.75H9.91671C9.16527 29.75 8.4446 29.4515 7.91325 28.9201C7.38189 28.3888 7.08338 27.6681 7.08338 26.9167V17.5865L6.6683 18.0016C6.40111 18.2596 6.04326 18.4024 5.67181 18.3992C5.30037 18.396 4.94505 18.247 4.68239 17.9843C4.41973 17.7217 4.27074 17.3664 4.26751 16.9949C4.26428 16.6235 4.40707 16.2656 4.66513 15.9984L7.49846 13.1651L15.9985 4.66509Z" fill="#6F6F6F"/>
</svg>
