<svg>
  <symbol id="home-icon" xmlns="http://www.w3.org/2000/svg" width="18" height="20" viewBox="0 0 18 20">
    <path d="M7.9695 0.893C8.248 0.629696 8.61673 0.482986 9 0.482986C9.38327 0.482986 9.752 0.629696 10.0305 0.893L17.2965 7.7615C17.7465 8.186 18 8.7785 18 9.3965V17.7515C18 18.3482 17.7629 18.9205 17.341 19.3425C16.919 19.7644 16.3467 20.0015 15.75 20.0015H12.75C12.4544 20.0015 12.1617 19.9433 11.8886 19.8301C11.6155 19.7169 11.3674 19.5511 11.1585 19.342C10.9495 19.1329 10.7838 18.8847 10.6708 18.6115C10.5579 18.3383 10.4998 18.0456 10.5 17.75V14C10.5 13.8011 10.421 13.6103 10.2803 13.4697C10.1397 13.329 9.94891 13.25 9.75 13.25H8.25C8.05109 13.25 7.86032 13.329 7.71967 13.4697C7.57902 13.6103 7.5 13.8011 7.5 14V17.75C7.5 18.3467 7.26295 18.919 6.84099 19.341C6.41903 19.7629 5.84674 20 5.25 20H2.25C1.65326 20 1.08097 19.7629 0.65901 19.341C0.237053 18.919 0 18.3467 0 17.75V9.395C0 8.777 0.255 8.1845 0.705 7.76L7.9695 0.89V0.893ZM9 1.982L1.734 8.852C1.66024 8.92193 1.60146 9.00612 1.56123 9.09947C1.52101 9.19281 1.50017 9.29336 1.5 9.395V17.75C1.5 17.9489 1.57902 18.1397 1.71967 18.2803C1.86032 18.421 2.05109 18.5 2.25 18.5H5.25C5.44891 18.5 5.63968 18.421 5.78033 18.2803C5.92098 18.1397 6 17.9489 6 17.75V14C6 13.4033 6.23705 12.831 6.65901 12.409C7.08097 11.9871 7.65326 11.75 8.25 11.75H9.75C10.3467 11.75 10.919 11.9871 11.341 12.409C11.7629 12.831 12 13.4033 12 14V17.75C12 17.9489 12.079 18.1397 12.2197 18.2803C12.3603 18.421 12.5511 18.5 12.75 18.5H15.75C15.9489 18.5 16.1397 18.421 16.2803 18.2803C16.421 18.1397 16.5 17.9489 16.5 17.75V9.395C16.5 9.29311 16.4793 9.19227 16.4391 9.09866C16.3988 9.00504 16.3399 8.9206 16.266 8.8505L9 1.982Z"/>
  </symbol>

  <symbol id="stock" xmlns="http://www.w3.org/2000/svg" width="24" height="24" viewBox="0 0 24 24">
    <path d="M8.74158 15.1065L14.9546 8.89351" stroke-width="1.425" stroke-linecap="round" stroke-linejoin="round"/>
    <path d="M9.13103 10.4515C9.77638 10.4515 10.2995 9.92836 10.2995 9.28301C10.2995 8.63767 9.77638 8.1145 9.13103 8.1145C8.48569 8.1145 7.96252 8.63767 7.96252 9.28301C7.96252 9.92836 8.48569 10.4515 9.13103 10.4515Z" stroke-width="1.425" stroke-linecap="round" stroke-linejoin="round"/>
    <path d="M15.344 15.8855C15.9894 15.8855 16.5125 15.3623 16.5125 14.717C16.5125 14.0716 15.9894 13.5485 15.344 13.5485C14.6987 13.5485 14.1755 14.0716 14.1755 14.717C14.1755 15.3623 14.6987 15.8855 15.344 15.8855Z" stroke-width="1.425" stroke-linecap="round" stroke-linejoin="round"/>
    <path d="M12 21.5C17.2467 21.5 21.5 17.2467 21.5 12C21.5 6.75329 17.2467 2.5 12 2.5C6.75329 2.5 2.5 6.75329 2.5 12C2.5 17.2467 6.75329 21.5 12 21.5Z" stroke-width="1.425" stroke-linecap="round" stroke-linejoin="round"/>
  </symbol>


  <symbol id="basket" xmlns="http://www.w3.org/2000/svg" width="24" height="24" viewBox="0 0 24 24">
    <path d="M7.5 7.66999V6.69999C7.5 4.44999 9.31 2.23999 11.56 2.02999C14.24 1.76999 16.5 3.87999 16.5 6.50999V7.88999" stroke-width="1.5" stroke-miterlimit="10" stroke-linecap="round" stroke-linejoin="round"/>
    <path d="M9 22H15C19.02 22 19.74 20.39 19.95 18.43L20.7 12.43C20.97 9.99 20.27 8 16 8H8C3.73 8 3.03 9.99 3.3 12.43L4.05 18.43C4.26 20.39 4.98 22 9 22Z" stroke-width="1.5" stroke-miterlimit="10" stroke-linecap="round" stroke-linejoin="round"/>
    <path d="M15.4955 12H15.5045" stroke-width="2" stroke-linecap="round" stroke-linejoin="round"/>
    <path d="M8.49451 12H8.50349" stroke-width="2" stroke-linecap="round" stroke-linejoin="round"/>
  </symbol>

  <symbol id="profile-icon" xmlns="http://www.w3.org/2000/svg" width="25" height="24" viewBox="0 0 25 24">
    <path d="M3 19.6667C3 18.429 3.50044 17.242 4.39124 16.3668C5.28204 15.4917 6.49022 15 7.75 15H17.25C18.5098 15 19.718 15.4917 20.6088 16.3668C21.4996 17.242 22 18.429 22 19.6667C22 20.2855 21.7498 20.879 21.3044 21.3166C20.859 21.7542 20.2549 22 19.625 22H5.375C4.74511 22 4.14102 21.7542 3.69562 21.3166C3.25022 20.879 3 20.2855 3 19.6667Z" stroke-width="1.5" stroke-linejoin="round"/>
    <path d="M12.5 13C15.5376 13 18 10.5376 18 7.5C18 4.46243 15.5376 2 12.5 2C9.46243 2 7 4.46243 7 7.5C7 10.5376 9.46243 13 12.5 13Z" stroke-width="1.5"/>
  </symbol>

  <symbol id="arrow-back" width="24" height="24" viewBox="0 0 24 24" fill="none" xmlns="http://www.w3.org/2000/svg">
    <path d="M11.4375 5.25L4.6875 12L11.4375 18.75M5.625 12L19.3125 12" stroke="#292D32" stroke-width="2" stroke-linecap="round" stroke-linejoin="round"/>
  </symbol>
</svg>